HIERARCHY
ROOT Hips
{
	OFFSET 0.00 0.00 0.00
	CHANNELS 6 Xposition Yposition Zposition Xrotation Yrotation Zrotation
	JOINT Spine
	{
		OFFSET 0.00000 1.61617 2.42426
		CHANNELS 3 Xrotation Yrotation Zrotation
		JOINT Spine1
		{
			OFFSET 0.00000 0.56129 3.18324
			CHANNELS 3 Xrotation Yrotation Zrotation
			JOINT Spine2
			{
				OFFSET 0.00000 0.28172 3.22005
				CHANNELS 3 Xrotation Yrotation Zrotation
				JOINT Spine3
				{
					OFFSET 0.00000 0.00000 3.23235
					CHANNELS 3 Xrotation Yrotation Zrotation
					JOINT Neck
					{
						OFFSET 0.00000 -1.21212 8.48491
						CHANNELS 3 Xrotation Yrotation Zrotation
						JOINT Head
						{
							OFFSET 0.00000 -0.77177 4.37696
							CHANNELS 3 Xrotation Yrotation Zrotation
							End Site
							{
								OFFSET 0.00000 0.00001 5.23236
							}
						}
					}
					JOINT RightShoulder
					{
						OFFSET -1.05492 -1.75819 5.69655
						CHANNELS 3 Xrotation Yrotation Zrotation
						JOINT RightArm
						{
							OFFSET -5.23942 0.00000 0.00000
							CHANNELS 3 Xrotation Yrotation Zrotation
							JOINT RightForeArm
							{
								OFFSET -10.59715 0.00000 0.00000
								CHANNELS 3 Xrotation Yrotation Zrotation
								JOINT RightHand
								{
									OFFSET -8.61218 0.00000 0.00000
									CHANNELS 3 Xrotation Yrotation Zrotation
									JOINT RightHandEnd
									{
										OFFSET -2.51134 0.00000 0.00000
										CHANNELS 3 Xrotation Yrotation Zrotation
										End Site
										{
											OFFSET -2.51134 0.00000 0.00000
										}
									}
									JOINT RightHandThumb1
									{
										OFFSET -1.00454 -1.67423 -0.66969
										CHANNELS 3 Yrotation Xrotation Zrotation
										End Site
										{
											OFFSET -2.42577 -0.64998 0.00000
										}
									}
								}
							}
						}
					}
					JOINT LeftShoulder
					{
						OFFSET 1.05492 -1.75819 5.69655
						CHANNELS 3 Xrotation Yrotation Zrotation
						JOINT LeftArm
						{
							OFFSET 5.23942 0.00000 0.00000
							CHANNELS 3 Xrotation Yrotation Zrotation
							JOINT LeftForeArm
							{
								OFFSET 10.59715 0.00000 0.00000
								CHANNELS 3 Xrotation Yrotation Zrotation
								JOINT LeftHand
								{
									OFFSET 8.61218 0.00000 0.00000
									CHANNELS 3 Xrotation Yrotation Zrotation
									JOINT LeftHandEnd
									{
										OFFSET 2.51134 0.00000 0.00000
										CHANNELS 3 Xrotation Yrotation Zrotation
										End Site
										{
											OFFSET 2.51134 0.00000 0.00000
										}
									}
									JOINT LeftHandThumb1
									{
										OFFSET 1.00454 -1.67423 -0.66969
										CHANNELS 3 Yrotation Xrotation Zrotation
										End Site
										{
											OFFSET 2.42577 -0.64998 0.00000
										}
									}
								}
							}
						}
					}
				}
			}
		}
	}
	JOINT RightUpLeg
	{
		OFFSET -3.12959 0.00000 -0.91426
		CHANNELS 3 Xrotation Yrotation Zrotation
		JOINT RightLeg
		{
			OFFSET 0.00001 0.00000 -15.50916
			CHANNELS 3 Xrotation Yrotation Zrotation
			JOINT RightFoot
			{
				OFFSET 0.00000 0.00000 -13.57731
				CHANNELS 3 Xrotation Yrotation Zrotation
				JOINT RightToeBase
				{
					OFFSET 0.00000 -5.09667 -1.85504
					CHANNELS 3 Xrotation Yrotation Zrotation
					End Site
					{
						OFFSET 0.00000 -2.53180 -0.00000
					}
				}
			}
		}
	}
	JOINT LeftUpLeg
	{
		OFFSET 3.12959 0.00000 -0.91426
		CHANNELS 3 Xrotation Yrotation Zrotation
		JOINT LeftLeg
		{
			OFFSET 0.00001 0.00000 -15.50916
			CHANNELS 3 Xrotation Yrotation Zrotation
			JOINT LeftFoot
			{
				OFFSET 0.00000 0.00000 -13.57731
				CHANNELS 3 Xrotation Yrotation Zrotation
				JOINT LeftToeBase
				{
					OFFSET 0.00000 -5.09667 -1.85504
					CHANNELS 3 Xrotation Yrotation Zrotation
					End Site
					{
						OFFSET 0.00000 -2.53180 -0.00000
					}
				}
			}
		}
	}
}
MOTION
Frames: 17
Frame Time: 0.008342
 22.9626 -25.0098 32.8872 0.0602 -0.6942 -89.5179 0.1982 0.1605 0.4565 0.1260 -0.7013 -0.0527 -1.9557 -0.0866 -0.8837 0.0749 -0.0178 -0.1812 6.8782 0.2429 -1.2305 -6.1267 -1.3153 -1.3502 -1.8642 4.7368 -1.2137 2.1745 -2.4575 16.8407 -0.0000 -0.0000 -4.5922 4.6740 7.6372 -13.9933 0.0000 0.0000 -0.0000 -0.0000 -0.0000 -0.0000 -2.9292 -7.6248 -0.5473 7.7786 12.1146 2.8164 -0.0000 -0.0000 -11.8064 0.9504 -1.5148 0.3686 0.0000 -0.0000 -0.0000 0.0000 0.0000 0.0000 7.4258 0.1226 -3.2128 -6.0993 0.0000 -0.0000 -3.5547 -1.8679 -12.3602 1.3013 0.0000 0.0000 5.4261 -0.3019 18.2968 -0.9169 0.0000 -0.0000 -2.2768 2.6983 -1.1385 2.2446 0.0000 0.0000
 22.9642 -25.0103 32.8874 0.0535 -0.6890 -89.5071 0.2040 0.1593 0.4579 0.1262 -0.7003 -0.0521 -1.9530 -0.0825 -0.8837 0.0753 -0.0169 -0.1821 6.8825 0.2284 -1.2327 -6.1309 -1.3183 -1.3462 -1.8589 4.7503 -1.2164 2.1782 -2.4603 16.8475 -0.0000 -0.0000 -4.5906 4.6605 7.6349 -13.9771 0.0000 0.0000 0.0000 0.0000 0.0000 0.0000 -2.9311 -7.6387 -0.5468 7.7767 12.1162 2.8305 -0.0000 -0.0000 -11.8137 0.9402 -1.5212 0.3983 0.0000 0.0000 -0.0000 0.0000 0.0000 -0.0000 7.4346 0.1298 -3.2107 -6.1092 0.0000 -0.0000 -3.5512 -1.8681 -12.3714 1.3012 0.0000 0.0000 5.4031 -0.3026 18.2411 -0.8633 0.0000 -0.0000 -2.3025 2.6828 -1.1005 2.2439 0.0000 0.0000
 22.9668 -25.0110 32.8877 0.0443 -0.6932 -89.4925 0.2001 0.1600 0.4590 0.1253 -0.7021 -0.0520 -1.9472 -0.0756 -0.8836 0.0765 -0.0156 -0.1820 6.8871 0.2095 -1.2358 -6.1380 -1.3217 -1.3406 -1.8519 4.7633 -1.2244 2.1788 -2.4602 16.8628 -0.0000 -0.0000 -4.5926 4.6443 7.6335 -13.9570 -0.0000 -0.0000 0.0000 -0.0000 -0.0000 -0.0000 -2.9333 -7.6522 -0.5465 7.7698 12.1135 2.8503 -0.0000 -0.0000 -11.8241 0.9321 -1.5276 0.4313 0.0000 -0.0000 0.0000 -0.0000 0.0000 -0.0000 7.4317 0.1396 -3.2109 -6.1176 0.0000 -0.0000 -3.5478 -1.8664 -12.3828 1.3006 0.0000 0.0000 5.3603 -0.3031 18.1671 -0.7925 0.0000 -0.0000 -2.3347 2.6624 -1.0497 2.2429 0.0000 0.0000
 22.9697 -25.0118 32.8881 0.0352 -0.6938 -89.4755 0.1992 0.1590 0.4609 0.1239 -0.7022 -0.0512 -1.9399 -0.0701 -0.8836 0.0782 -0.0137 -0.1820 6.8931 0.1872 -1.2395 -6.1452 -1.3268 -1.3338 -1.8436 4.7814 -1.2331 2.1776 -2.4631 16.8802 -0.0000 -0.0000 -4.5945 4.6270 7.6362 -13.9371 0.0000 0.0000 0.0000 0.0000 0.0000 0.0000 -2.9332 -7.6701 -0.5462 7.7570 12.1122 2.8741 -0.0000 -0.0000 -11.8353 0.9255 -1.5360 0.4633 0.0000 -0.0000 0.0000 0.0000 0.0000 0.0000 7.4323 0.1491 -3.2077 -6.1261 0.0000 -0.0000 -3.5439 -1.8638 -12.3986 1.2982 0.0000 0.0000 5.3151 -0.3055 18.0805 -0.7098 0.0000 -0.0000 -2.3728 2.6386 -0.9898 2.2419 0.0000 0.0000
 22.9732 -25.0125 32.8886 0.0269 -0.6978 -89.4564 0.1942 0.1565 0.4640 0.1225 -0.7032 -0.0517 -1.9314 -0.0630 -0.8826 0.0809 -0.0118 -0.1815 6.9003 0.1619 -1.2441 -6.1543 -1.3338 -1.3256 -1.8346 4.8015 -1.2445 2.1734 -2.4673 16.9023 -0.0000 -0.0000 -4.5977 4.6105 7.6425 -13.9191 -0.0000 0.0000 -0.0000 -0.0000 -0.0000 0.0000 -2.9324 -7.6894 -0.5468 7.7387 12.1097 2.9025 -0.0000 -0.0000 -11.8480 0.9212 -1.5448 0.4926 0.0000 -0.0000 0.0000 -0.0000 0.0000 -0.0000 7.4267 0.1578 -3.2048 -6.1310 0.0000 -0.0000 -3.5404 -1.8599 -12.4148 1.2945 0.0000 0.0000 5.2599 -0.3102 17.9830 -0.6166 0.0000 -0.0000 -2.4155 2.6116 -0.9219 2.2403 0.0000 0.0000
 22.9767 -25.0133 32.8891 0.0171 -0.6967 -89.4358 0.1927 0.1561 0.4665 0.1194 -0.7049 -0.0503 -1.9188 -0.0575 -0.8822 0.0833 -0.0087 -0.1821 6.9088 0.1343 -1.2473 -6.1622 -1.3424 -1.3166 -1.8276 4.8267 -1.2493 2.1691 -2.4767 16.9178 -0.0000 -0.0000 -4.5956 4.5935 7.6565 -13.9089 0.0000 -0.0000 0.0000 -0.0000 -0.0000 0.0000 -2.9279 -7.7136 -0.5450 7.7132 12.1105 2.9322 -0.0000 -0.0000 -11.8612 0.9183 -1.5550 0.5176 -0.0000 -0.0000 0.0000 0.0000 0.0000 -0.0000 7.4269 0.1680 -3.1979 -6.1365 0.0000 -0.0000 -3.5367 -1.8537 -12.4355 1.2907 0.0000 0.0000 5.2081 -0.3140 17.8790 -0.5194 0.0000 -0.0000 -2.4592 2.5843 -0.8493 2.2384 0.0000 0.0000
 22.9805 -25.0141 32.8897 0.0086 -0.6966 -89.4150 0.1893 0.1551 0.4694 0.1162 -0.7078 -0.0499 -1.9057 -0.0518 -0.8807 0.0868 -0.0064 -0.1816 6.9185 0.1077 -1.2507 -6.1702 -1.3541 -1.3070 -1.8202 4.8551 -1.2555 2.1609 -2.4887 16.9376 -0.0000 -0.0000 -4.5958 4.5782 7.6741 -13.9028 -0.0000 0.0000 -0.0000 0.0000 -0.0000 -0.0000 -2.9225 -7.7386 -0.5440 7.6819 12.1125 2.9655 -0.0000 -0.0000 -11.8762 0.9166 -1.5659 0.5378 -0.0000 0.0000 0.0000 0.0000 0.0000 0.0000 7.4233 0.1767 -3.1917 -6.1373 0.0000 -0.0000 -3.5340 -1.8460 -12.4546 1.2852 0.0000 0.0000 5.1539 -0.3193 17.7698 -0.4207 0.0000 -0.0000 -2.5030 2.5566 -0.7714 2.2358 0.0000 0.0000
 22.9843 -25.0148 32.8902 0.0014 -0.6946 -89.3949 0.1858 0.1535 0.4719 0.1127 -0.7113 -0.0496 -1.8905 -0.0471 -0.8775 0.0903 -0.0040 -0.1805 6.9293 0.0822 -1.2541 -6.1778 -1.3679 -1.2981 -1.8138 4.8859 -1.2599 2.1505 -2.5035 16.9552 -0.0000 -0.0000 -4.5930 4.5650 7.6943 -13.9068 0.0000 -0.0000 0.0000 0.0000 -0.0000 -0.0000 -2.9151 -7.7649 -0.5433 7.6457 12.1170 2.9988 -0.0000 -0.0000 -11.8911 0.9154 -1.5776 0.5507 -0.0000 0.0000 0.0000 -0.0000 -0.0000 0.0000 7.4198 0.1839 -3.1857 -6.1348 0.0000 -0.0000 -3.5316 -1.8369 -12.4725 1.2797 0.0000 0.0000 5.1033 -0.3253 17.6607 -0.3257 0.0000 -0.0000 -2.5446 2.5304 -0.6922 2.2333 0.0000 0.0000
 22.9880 -25.0154 32.8908 -0.0037 -0.6912 -89.3770 0.1822 0.1507 0.4747 0.1092 -0.7153 -0.0493 -1.8744 -0.0434 -0.8727 0.0941 -0.0017 -0.1795 6.9413 0.0590 -1.2559 -6.1843 -1.3845 -1.2904 -1.8092 4.9180 -1.2612 2.1384 -2.5209 16.9709 -0.0000 -0.0000 -4.5887 4.5534 7.7168 -13.9182 -0.0000 0.0000 0.0000 -0.0000 -0.0000 0.0000 -2.9065 -7.7927 -0.5418 7.6053 12.1251 3.0314 -0.0000 -0.0000 -11.9065 0.9129 -1.5905 0.5577 0.0000 -0.0000 0.0000 -0.0000 -0.0000 0.0000 7.4153 0.1890 -3.1785 -6.1276 0.0000 -0.0000 -3.5303 -1.8269 -12.4893 1.2736 0.0000 0.0000 5.0580 -0.3324 17.5593 -0.2385 0.0000 -0.0000 -2.5824 2.5066 -0.6172 2.2305 0.0000 0.0000
 22.9912 -25.0158 32.8914 -0.0066 -0.6814 -89.3623 0.1832 0.1456 0.4775 0.1059 -0.7180 -0.0494 -1.8579 -0.0416 -0.8657 0.0980 0.0005 -0.1782 6.9548 0.0396 -1.2566 -6.1887 -1.4029 -1.2848 -1.8057 4.9532 -1.2584 2.1259 -2.5425 16.9834 -0.0000 -0.0000 -4.5827 4.5449 7.7401 -13.9369 0.0000 0.0000 0.0000 0.0000 -0.0000 -0.0000 -2.8965 -7.8224 -0.5395 7.5616 12.1385 3.0618 -0.0000 -0.0000 -11.9220 0.9087 -1.6040 0.5592 -0.0000 0.0000 -0.0000 -0.0000 0.0000 -0.0000 7.4161 0.1918 -3.1714 -6.1168 0.0000 -0.0000 -3.5299 -1.8166 -12.5031 1.2673 0.0000 0.0000 5.0267 -0.3398 17.4706 -0.1646 0.0000 -0.0000 -2.6142 2.4865 -0.5500 2.2284 0.0000 0.0000
 22.9943 -25.0162 32.8919 -0.0079 -0.6730 -89.3512 0.1810 0.1407 0.4796 0.1025 -0.7231 -0.0495 -1.8405 -0.0399 -0.8563 0.1021 0.0020 -0.1765 6.9687 0.0249 -1.2563 -6.1926 -1.4230 -1.2816 -1.8032 4.9870 -1.2539 2.1120 -2.5632 16.9952 -0.0000 -0.0000 -4.5760 4.5365 7.7606 -13.9616 0.0000 -0.0000 0.0000 0.0000 -0.0000 -0.0000 -2.8871 -7.8505 -0.5369 7.5163 12.1548 3.0894 -0.0000 -0.0000 -11.9376 0.9030 -1.6187 0.5563 -0.0000 -0.0000 0.0000 -0.0000 0.0000 0.0000 7.4122 0.1929 -3.1674 -6.1004 0.0000 -0.0000 -3.5311 -1.8060 -12.5109 1.2611 0.0000 0.0000 5.0000 -0.3469 17.3934 -0.1034 0.0000 -0.0000 -2.6396 2.4697 -0.4891 2.2261 0.0000 0.0000
 22.9970 -25.0166 32.8924 -0.0073 -0.6627 -89.3444 0.1787 0.1344 0.4812 0.0996 -0.7281 -0.0493 -1.8229 -0.0397 -0.8445 0.1061 0.0031 -0.1743 6.9835 0.0156 -1.2546 -6.1946 -1.4431 -1.2821 -1.8015 5.0206 -1.2473 2.0982 -2.5840 17.0057 -0.0000 -0.0000 -4.5683 4.5311 7.7777 -13.9895 0.0000 -0.0000 -0.0000 -0.0000 -0.0000 -0.0000 -2.8786 -7.8775 -0.5335 7.4708 12.1751 3.1131 -0.0000 -0.0000 -11.9530 0.8954 -1.6343 0.5504 0.0000 -0.0000 -0.0000 0.0000 -0.0000 -0.0000 7.4083 0.1923 -3.1668 -6.0800 0.0000 -0.0000 -3.5335 -1.7961 -12.5125 1.2547 0.0000 0.0000 4.9836 -0.3534 17.3316 -0.0578 0.0000 -0.0000 -2.6581 2.4564 -0.4376 2.2245 0.0000 0.0000
 22.9995 -25.0169 32.8928 -0.0052 -0.6522 -89.3413 0.1747 0.1270 0.4816 0.0971 -0.7336 -0.0496 -1.8048 -0.0399 -0.8304 0.1101 0.0034 -0.1716 6.9986 0.0116 -1.2514 -6.1952 -1.4632 -1.2863 -1.8003 5.0524 -1.2385 2.0852 -2.6032 17.0162 -0.0000 -0.0000 -4.5618 4.5279 7.7900 -14.0164 0.0000 0.0000 0.0000 0.0000 -0.0000 0.0000 -2.8718 -7.9024 -0.5290 7.4258 12.1984 3.1328 -0.0000 -0.0000 -11.9684 0.8859 -1.6515 0.5426 -0.0000 0.0000 0.0000 -0.0000 -0.0000 0.0000 7.4025 0.1900 -3.1710 -6.0553 0.0000 -0.0000 -3.5375 -1.7874 -12.5069 1.2478 0.0000 0.0000 4.9753 -0.3591 17.2853 -0.0274 0.0000 -0.0000 -2.6698 2.4462 -0.3963 2.2239 0.0000 0.0000
 23.0016 -25.0172 32.8932 -0.0012 -0.6411 -89.3426 0.1703 0.1179 0.4820 0.0941 -0.7399 -0.0499 -1.7864 -0.0402 -0.8134 0.1141 0.0034 -0.1691 7.0139 0.0125 -1.2477 -6.1940 -1.4818 -1.2936 -1.7997 5.0819 -1.2290 2.0743 -2.6196 17.0272 -0.0000 -0.0000 -4.5553 4.5252 7.7973 -14.0412 0.0000 -0.0000 -0.0000 0.0000 0.0000 0.0000 -2.8668 -7.9248 -0.5238 7.3823 12.2240 3.1479 -0.0000 -0.0000 -11.9839 0.8743 -1.6697 0.5356 0.0000 0.0000 0.0000 0.0000 0.0000 0.0000 7.3956 0.1861 -3.1807 -6.0268 0.0000 -0.0000 -3.5429 -1.7806 -12.4931 1.2406 0.0000 0.0000 4.9753 -0.3645 17.2542 -0.0111 0.0000 -0.0000 -2.6758 2.4383 -0.3647 2.2251 0.0000 0.0000
 23.0031 -25.0175 32.8936 0.0038 -0.6249 -89.3471 0.1690 0.1072 0.4822 0.0915 -0.7463 -0.0507 -1.7680 -0.0405 -0.7946 0.1179 0.0030 -0.1668 7.0297 0.0171 -1.2437 -6.1902 -1.4982 -1.3042 -1.7984 5.1106 -1.2187 2.0657 -2.6346 17.0397 -0.0000 -0.0000 -4.5504 4.5261 7.8005 -14.0583 0.0000 0.0000 -0.0000 0.0000 0.0000 -0.0000 -2.8633 -7.9455 -0.5173 7.3413 12.2521 3.1585 -0.0000 -0.0000 -11.9993 0.8614 -1.6886 0.5309 0.0000 -0.0000 0.0000 -0.0000 0.0000 -0.0000 7.3943 0.1811 -3.1954 -5.9980 0.0000 -0.0000 -3.5490 -1.7763 -12.4727 1.2325 0.0000 0.0000 4.9885 -0.3686 17.2374 -0.0092 0.0000 -0.0000 -2.6765 2.4324 -0.3432 2.2273 0.0000 0.0000
 23.0040 -25.0179 32.8938 0.0089 -0.6025 -89.3540 0.1722 0.0957 0.4816 0.0900 -0.7521 -0.0512 -1.7509 -0.0415 -0.7751 0.1217 0.0022 -0.1643 7.0459 0.0252 -1.2393 -6.1831 -1.5113 -1.3173 -1.7964 5.1395 -1.2079 2.0599 -2.6491 17.0537 -0.0000 -0.0000 -4.5468 4.5287 7.8020 -14.0668 -0.0000 0.0000 -0.0000 -0.0000 -0.0000 0.0000 -2.8608 -7.9647 -0.5094 7.3029 12.2825 3.1649 -0.0000 -0.0000 -12.0154 0.8470 -1.7085 0.5291 0.0000 -0.0000 0.0000 0.0000 0.0000 0.0000 7.4011 0.1763 -3.2125 -5.9704 0.0000 -0.0000 -3.5557 -1.7741 -12.4491 1.2233 0.0000 0.0000 5.0153 -0.3707 17.2310 -0.0194 0.0000 -0.0000 -2.6727 2.4277 -0.3293 2.2308 0.0000 0.0000
 23.0046 -25.0184 32.8940 0.0136 -0.5806 -89.3620 0.1736 0.0837 0.4806 0.0883 -0.7576 -0.0516 -1.7334 -0.0426 -0.7560 0.1258 0.0011 -0.1618 7.0621 0.0355 -1.2347 -6.1741 -1.5204 -1.3322 -1.7942 5.1655 -1.1977 2.0578 -2.6591 17.0715 -0.0000 -0.0000 -4.5458 4.5345 7.8023 -14.0649 -0.0000 0.0000 0.0000 0.0000 -0.0000 -0.0000 -2.8605 -7.9794 -0.5002 7.2677 12.3115 3.1680 -0.0000 -0.0000 -12.0316 0.8340 -1.7291 0.5294 -0.0000 0.0000 -0.0000 -0.0000 0.0000 -0.0000 7.4076 0.1721 -3.2352 -5.9429 0.0000 -0.0000 -3.5633 -1.7736 -12.4202 1.2137 0.0000 0.0000 5.0454 -0.3709 17.2305 -0.0367 0.0000 -0.0000 -2.6663 2.4229 -0.3203 2.2345 0.0000 0.0000
